<svg width="34" height="31" viewBox="0 0 34 31" fill="none" xmlns="http://www.w3.org/2000/svg">
<path d="M28.8012 2.5963C26.5714 1.36749 24.2125 0.494356 21.7868 0C21.4847 0.643405 21.1316 1.50879 20.8882 2.19725C18.2729 1.73405 15.6816 1.73405 13.1143 2.19725C12.871 1.50894 12.51 0.643405 12.2051 0C9.77697 0.494584 7.41605 1.36994 5.18526 2.60272C0.746131 10.5039 -0.457283 18.2087 0.144358 25.8044C3.08868 28.3942 5.94202 29.9674 8.74728 30.9969C9.44446 29.8676 10.0608 28.6721 10.5898 27.4226C9.58258 26.9709 8.61159 26.4143 7.68837 25.7594C7.93132 25.5473 8.16856 25.3262 8.39971 25.0966C13.994 28.1786 20.0726 28.1786 25.6003 25.0966C25.8324 25.3247 26.0696 25.5457 26.3115 25.7594C25.3868 26.416 24.414 26.9737 23.4047 27.4258C23.9368 28.6804 24.552 29.8771 25.2472 31C28.0552 29.9707 30.9112 28.3974 33.8555 25.8044C34.5615 16.9992 32.6495 9.36512 28.8012 2.5963ZM11.352 21.1332C9.67259 21.1332 8.29532 19.2865 8.29532 17.0378C8.29532 14.7891 9.64324 12.9393 11.352 12.9393C13.0609 12.9393 14.438 14.7858 14.4087 17.0378C14.4113 19.2865 13.0609 21.1332 11.352 21.1332ZM22.6478 21.1332C20.9684 21.1332 19.5913 19.2865 19.5913 17.0378C19.5913 14.7891 20.9391 12.9393 22.6478 12.9393C24.3567 12.9393 25.7339 14.7858 25.7045 17.0378C25.7045 19.2865 24.3567 21.1332 22.6478 21.1332Z" fill="#9747FF"/>
</svg>
