<svg width="32" height="31" viewBox="0 0 32 31" fill="none" xmlns="http://www.w3.org/2000/svg">
<path d="M27.2655 26.4139H22.5241V19.2206C22.5241 17.5053 22.4925 15.2971 20.0581 15.2971C17.5886 15.2971 17.2108 17.1661 17.2108 19.0957V26.4134H12.4695V11.6211H17.0211V13.6426H17.0849C17.5404 12.8881 18.1986 12.2674 18.9895 11.8466C19.7803 11.4258 20.6742 11.2207 21.5759 11.2531C26.3815 11.2531 27.2675 14.3153 27.2675 18.299L27.2655 26.4139ZM7.1195 9.59917C5.59988 9.59942 4.36775 8.40616 4.3675 6.93402C4.36725 5.46189 5.59888 4.26827 7.1185 4.26802C8.63813 4.26766 9.87025 5.46092 9.8705 6.93305C9.87063 7.64 9.58088 8.31805 9.06497 8.81804C8.54906 9.31803 7.84926 9.59901 7.1195 9.59917ZM9.49025 26.414H4.74388V11.6211H9.49013L9.49025 26.414ZM29.6293 0.0022562H2.36137C1.07262 -0.0117907 0.01575 0.988322 0 2.2368V28.7627C0.01525 30.0118 1.072 31.0129 2.36125 30.9998H29.6293C30.9213 31.0153 31.9821 30.0142 32 28.7627V2.23474C31.9816 0.983842 30.9206 -0.01615 29.6293 0.000197612" fill="#A15EE6"/>
</svg>
