<svg width="37" height="31" viewBox="0 0 37 31" fill="none" xmlns="http://www.w3.org/2000/svg">
<path d="M37 3.66971C35.6145 4.3025 34.1449 4.71786 32.6401 4.90198C34.2075 3.93345 35.411 2.39973 35.9777 0.57233C34.4877 1.48392 32.8575 2.1262 31.1575 2.47141C29.7727 0.950506 27.8 0 25.6166 0C21.4243 0 18.0254 3.50401 18.0254 7.82577C18.0254 8.43923 18.0926 9.03644 18.2219 9.60937C11.9131 9.28289 6.31977 6.16734 2.57569 1.43254C1.92241 2.58837 1.54807 3.93285 1.54807 5.36688C1.54807 8.08206 2.88831 10.4773 4.92505 11.8808C3.71958 11.8419 2.54064 11.5062 1.48665 10.9018C1.48621 10.9346 1.48621 10.9674 1.48621 11.0003C1.48621 14.7921 4.10281 17.9552 7.57532 18.6741C6.45749 18.9875 5.28497 19.0334 4.14732 18.8082C5.11323 21.9174 7.9167 24.1799 11.2383 24.2432C8.64037 26.3421 5.36717 27.5933 1.81083 27.5933C1.19802 27.5933 0.593879 27.5562 0 27.4839C3.35934 29.7044 7.34941 31 11.6362 31C25.5989 31 33.2341 19.0749 33.2341 8.73336C33.2341 8.39393 33.2269 8.05643 33.2121 7.72087C34.6982 6.61329 35.9809 5.24144 37 3.66971Z" fill="#9747FF"/>
</svg>
