<svg width="57" height="44" viewBox="0 0 57 44" fill="none" xmlns="http://www.w3.org/2000/svg">
<path d="M42.3368 13.4419C41.3015 12.8837 39.9559 12.8837 38.8172 13.4419L30.7432 17.7209L25.257 20.5116L17.1831 24.7907C16.1479 25.3488 14.8023 25.3488 13.6637 24.7907L7.2459 21.4419C6.21076 20.8838 5.48618 19.8605 5.48618 18.7441V12.1395C5.48618 11.0233 6.10725 10 7.2459 9.44186L13.5602 6.18604C14.5953 5.6279 15.941 5.6279 17.0796 6.18604L23.3939 9.44186C24.429 10 25.1536 11.0233 25.1536 12.1395V16.4186L30.6397 13.5349V9.25581C30.6397 8.13953 30.0187 7.11628 28.8801 6.55814L17.1831 0.418605C16.1479 -0.139535 14.8023 -0.139535 13.6637 0.418605L1.75971 6.55814C0.621076 7.11628 0 8.13953 0 9.25581V21.6279C0 22.7442 0.621076 23.7674 1.75971 24.3255L13.6637 30.4651C14.6988 31.0233 16.0445 31.0233 17.1831 30.4651L25.257 26.279L30.7432 23.3953L38.8172 19.2093C39.8525 18.6512 41.198 18.6512 42.3368 19.2093L48.651 22.4652C49.6861 23.0233 50.4108 24.0465 50.4108 25.1628V31.7674C50.4108 32.8837 49.7896 33.907 48.651 34.4651L42.3368 37.814C41.3015 38.3721 39.9559 38.3721 38.8172 37.814L32.503 34.5582C31.4679 34 30.7432 32.9768 30.7432 31.8604V27.5814L25.257 30.4651V34.7442C25.257 35.8604 25.8782 36.8837 27.0168 37.4418L38.9208 43.5815C39.9559 44.1396 41.3015 44.1396 42.4403 43.5815L54.3441 37.4418C55.3794 36.8837 56.1039 35.8604 56.1039 34.7442V22.3721C56.1039 21.2558 55.4829 20.2326 54.3441 19.6745L42.3368 13.4419Z" fill="#7950DD"/>
</svg>
